<svg width="352" height="316" viewBox="0 0 352 316" fill="none" xmlns="http://www.w3.org/2000/svg">
<rect width="352" height="316" fill="#F5F5F5"/>
<path d="M171.581 152L233 121.333L175.419 83L114 117.5L171.581 152Z" fill="#444444"/>
<path d="M114 118V187.038L174 219L171.447 152.519L114 118Z" fill="#444444"/>
<path d="M237 186.763L233.176 121L172 151.947L174.549 219L237 186.763Z" fill="#444444"/>
<path d="M237 186.763L233.176 121L172 151.947L174.549 219L237 186.763Z" fill="#585454"/>
<path d="M171.581 152L233 121.333L175.419 83L114 117.5L171.581 152Z" fill="#585454"/>
<path d="M237 186.763L233.176 121L172 151.947L174.549 219L237 186.763Z" fill="#646363"/>
<path d="M200.384 150.967C200.392 153.46 200.076 155.944 199.446 158.357C198.856 160.679 197.986 162.921 196.854 165.034C195.735 167.124 194.374 169.076 192.799 170.849C191.267 172.582 189.527 174.119 187.618 175.426C187.954 176.564 188.394 177.669 188.933 178.727C189.445 179.721 190.089 180.642 190.848 181.464C191.556 182.232 192.395 182.868 193.327 183.341C194.237 183.794 195.241 184.025 196.257 184.017C196.726 184.015 197.193 183.952 197.646 183.831C198.128 183.728 198.586 183.537 198.997 183.267C199.14 183.149 199.306 183.062 199.484 183.011C199.656 182.965 199.832 182.94 200.01 182.937C200.51 182.937 200.992 183.124 201.361 183.462C201.567 183.637 201.731 183.856 201.841 184.103C201.951 184.35 202.005 184.618 201.999 184.888C202.01 185.224 201.932 185.556 201.774 185.853C201.615 186.149 201.382 186.398 201.097 186.576C200.37 187.026 199.588 187.379 198.769 187.626C197.954 187.874 197.107 188 196.254 188C194.86 188.011 193.478 187.731 192.199 187.175C190.942 186.621 189.787 185.86 188.782 184.924C187.719 183.929 186.797 182.793 186.042 181.549C185.251 180.244 184.597 178.861 184.088 177.423C182.394 178.221 180.62 178.837 178.795 179.262C176.95 179.718 175.056 179.945 173.156 179.938C170.714 179.943 168.285 179.59 165.947 178.888C163.672 178.225 161.498 177.253 159.487 175.999C155.398 173.425 152.038 169.845 149.729 165.602C148.536 163.409 147.615 161.078 146.988 158.662C145.027 151.158 146.007 143.189 149.729 136.382C150.885 134.254 152.311 132.283 153.971 130.518C155.608 128.774 157.463 127.248 159.49 125.977C163.58 123.391 168.318 122.012 173.158 122C175.692 121.986 178.213 122.365 180.63 123.125C182.956 123.85 185.169 124.898 187.203 126.239C189.232 127.565 191.076 129.155 192.686 130.966C194.307 132.778 195.697 134.783 196.826 136.936C197.976 139.083 198.858 141.363 199.454 143.724C200.075 146.088 200.388 148.523 200.384 150.967V150.967ZM196.48 150.967C196.468 149.166 196.24 147.373 195.801 145.627C195.347 143.742 194.705 141.907 193.886 140.149C193.087 138.353 192.105 136.644 190.956 135.048C189.885 133.485 188.623 132.062 187.2 130.81C185.909 129.624 184.438 128.65 182.843 127.921C181.354 127.21 179.725 126.838 178.075 126.833C176.043 126.805 174.022 127.135 172.105 127.809C170.38 128.429 168.769 129.329 167.337 130.472C165.941 131.593 164.725 132.921 163.732 134.41C162.696 135.948 161.837 137.596 161.169 139.325C160.509 141.087 160.018 142.909 159.705 144.764C159.383 146.61 159.22 148.481 159.218 150.355C159.219 152.385 159.332 154.414 159.557 156.432C159.798 158.411 160.2 160.368 160.759 162.283C161.315 164.087 162.045 165.833 162.938 167.497C163.811 169.063 164.926 170.481 166.242 171.7C167.574 172.894 169.114 173.835 170.784 174.476C172.694 175.182 174.718 175.53 176.755 175.5C177.86 175.501 178.961 175.359 180.031 175.077C181.106 174.778 182.15 174.375 183.148 173.876C182.694 172.218 181.799 170.713 180.556 169.523C179.333 168.488 177.764 167.952 176.162 168.022C175.608 168.02 175.054 168.071 174.509 168.173C174.008 168.274 173.545 168.387 173.12 168.511C172.66 168.632 172.209 168.782 171.769 168.962C171.515 169.1 171.232 169.177 170.943 169.187C170.438 169.175 169.956 168.974 169.592 168.624C169.388 168.44 169.225 168.214 169.115 167.962C169.005 167.709 168.95 167.437 168.954 167.162C168.954 166.799 169.058 166.443 169.254 166.137C169.452 165.814 169.739 165.554 170.079 165.387C170.248 165.297 170.424 165.222 170.605 165.162C171.045 164.981 171.496 164.831 171.956 164.711C172.506 164.561 173.144 164.423 173.871 164.299C174.628 164.171 175.395 164.109 176.162 164.112C178.442 164.04 180.679 164.74 182.509 166.099C184.361 167.556 185.768 169.5 186.572 171.712C188.061 170.474 189.397 169.063 190.553 167.51C191.779 165.91 192.836 164.188 193.706 162.37C194.578 160.558 195.257 158.659 195.734 156.706C196.222 154.831 196.472 152.903 196.477 150.967H196.48Z" fill="white"/>
<path d="M172.581 152L234 121.333L176.419 83L115 117.5L172.581 152Z" fill="#EC3944"/>
<path d="M115 118V187.038L175 219L172.447 152.519L115 118Z" fill="#EC3944"/>
<path d="M238 186.763L234.176 121L173 151.947L175.549 219L238 186.763Z" fill="#EC3944"/>
<path d="M238 186.763L234.176 121L173 151.947L175.549 219L238 186.763Z" fill="#EF7880"/>
<path d="M172.581 152L234 121.333L176.419 83L115 117.5L172.581 152Z" fill="#EF7880"/>
<path d="M238 186.925L234.149 121.491L172.527 152.283L175.095 219L238 186.925Z" fill="#F7626B"/>
<path d="M201.392 150.967C201.399 153.46 201.084 155.944 200.453 158.357C199.863 160.679 198.993 162.921 197.861 165.034C196.742 167.124 195.381 169.076 193.805 170.849C192.271 172.583 190.528 174.12 188.616 175.426C188.952 176.564 189.393 177.669 189.932 178.727C190.443 179.721 191.088 180.642 191.847 181.464C192.555 182.232 193.394 182.868 194.326 183.341C195.236 183.794 196.24 184.025 197.256 184.017C197.725 184.015 198.193 183.952 198.646 183.831C199.127 183.728 199.585 183.537 199.997 183.267C200.14 183.149 200.305 183.061 200.484 183.011C200.656 182.965 200.832 182.94 201.01 182.937C201.51 182.937 201.992 183.124 202.361 183.462C202.566 183.637 202.731 183.856 202.841 184.103C202.951 184.35 203.005 184.618 202.999 184.888C203.01 185.224 202.932 185.556 202.774 185.853C202.615 186.149 202.382 186.398 202.097 186.576C201.37 187.026 200.587 187.379 199.769 187.626C198.953 187.874 198.106 188 197.254 188C195.859 188.012 194.477 187.731 193.198 187.175C191.94 186.621 190.785 185.86 189.78 184.924C188.717 183.929 187.795 182.793 187.04 181.549C186.249 180.244 185.595 178.861 185.086 177.423C183.391 178.221 181.617 178.837 179.792 179.262C177.947 179.718 176.052 179.945 174.152 179.938C171.71 179.943 169.281 179.59 166.942 178.888C164.667 178.225 162.494 177.253 160.484 175.999C156.396 173.424 153.037 169.844 150.729 165.602C149.536 163.409 148.615 161.078 147.988 158.662C146.027 151.158 147.007 143.189 150.729 136.382C151.886 134.254 153.312 132.283 154.972 130.518C156.61 128.774 158.465 127.248 160.492 125.977C164.582 123.391 169.321 122.012 174.162 122C176.696 121.986 179.217 122.365 181.635 123.125C183.961 123.85 186.173 124.899 188.206 126.239C190.235 127.565 192.079 129.155 193.69 130.966C195.307 132.777 196.694 134.78 197.82 136.93C198.97 139.078 199.853 141.358 200.448 143.719C201.074 146.084 201.392 148.52 201.392 150.967V150.967ZM197.487 150.967C197.479 149.167 197.255 147.374 196.82 145.627C196.367 143.742 195.725 141.907 194.905 140.149C194.107 138.353 193.126 136.644 191.977 135.048C190.906 133.485 189.644 132.062 188.221 130.81C186.93 129.624 185.459 128.649 183.863 127.921C182.374 127.21 180.745 126.838 179.094 126.833C177.062 126.805 175.041 127.135 173.123 127.809C171.399 128.43 169.788 129.329 168.355 130.472C166.959 131.593 165.743 132.921 164.75 134.41C163.714 135.948 162.854 137.596 162.186 139.325C161.526 141.087 161.036 142.909 160.723 144.764C160.399 146.61 160.235 148.481 160.233 150.355C160.233 152.385 160.346 154.414 160.571 156.432C160.813 158.411 161.215 160.368 161.774 162.283C162.33 164.087 163.06 165.833 163.953 167.497C164.826 169.063 165.942 170.481 167.258 171.7C168.588 172.898 170.127 173.843 171.798 174.488C173.708 175.195 175.732 175.542 177.769 175.513C178.872 175.508 179.97 175.362 181.035 175.077C182.111 174.778 183.155 174.375 184.153 173.876C183.699 172.218 182.804 170.713 181.561 169.523C180.338 168.488 178.768 167.952 177.167 168.022C176.612 168.02 176.058 168.071 175.513 168.173C175.012 168.274 174.549 168.387 174.123 168.511C173.664 168.632 173.212 168.782 172.772 168.962C172.518 169.1 172.236 169.177 171.947 169.187C171.442 169.175 170.959 168.974 170.596 168.624C170.391 168.44 170.229 168.214 170.118 167.962C170.008 167.709 169.953 167.437 169.957 167.162C169.957 166.799 170.062 166.443 170.257 166.137C170.455 165.814 170.742 165.554 171.083 165.387C171.251 165.297 171.427 165.222 171.608 165.162C172.048 164.981 172.499 164.831 172.959 164.711C173.51 164.561 174.148 164.423 174.875 164.299C175.632 164.171 176.399 164.109 177.167 164.112C179.446 164.04 181.683 164.74 183.514 166.099C185.36 167.55 186.764 169.486 187.57 171.689C189.059 170.451 190.396 169.04 191.552 167.487C192.778 165.887 193.834 164.165 194.705 162.347C195.577 160.535 196.257 158.636 196.733 156.683C197.222 154.816 197.474 152.896 197.484 150.967H197.487Z" fill="white"/>
</svg>
